<?xml version="1.0" encoding="iso-8859-1"?>
<!-- Generator: Adobe Illustrator 19.0.0, SVG Export Plug-In . SVG Version: 6.00 Build 0)  -->
<svg version="1.1" id="Layer_1" xmlns="http://www.w3.org/2000/svg" xmlns:xlink="http://www.w3.org/1999/xlink" x="0px" y="0px"
	 viewBox="0 0 429.18 429.18" style="enable-background:new 0 0 429.18 429.18;" xml:space="preserve">
<g>
	<path style="fill:#F7774B;" d="M332.105,339.787v89.39H97.075v-89.39c0-39.62,28.4-72.6,65.95-79.7c4.91-0.93,9.99-1.42,15.17-1.42
		h72.79c5.18,0,10.26,0.49,15.17,1.42C303.705,267.187,332.105,300.167,332.105,339.787z"/>
	<path style="fill:#FFFFFF;" d="M326.105,339.787h-4c0-34.154-24.313-63.541-57.811-69.875c-4.363-0.826-8.841-1.245-13.31-1.245
		h-72.79c-4.468,0-8.947,0.419-13.312,1.246c-33.497,6.334-57.809,35.72-57.809,69.875h-4c0-36.075,25.682-67.114,61.065-73.805
		c4.609-0.873,9.338-1.315,14.055-1.315h72.79c4.718,0,9.446,0.442,14.053,1.315C300.422,272.673,326.105,303.712,326.105,339.787z"
		/>
	<path style="fill:#DD5D3A;" d="M266.155,260.087v8.16l-51.57,75.24l-51.56-75.24v-8.16c4.91-0.93,9.99-1.42,15.17-1.42h72.79
		C256.165,258.667,261.245,259.157,266.155,260.087z"/>
	<rect x="97.075" y="378" style="fill:#FFD3AE;" width="40.5" height="51.18"/>
	<rect x="291.605" y="378" style="fill:#FFD3AE;" width="40.5" height="51.18"/>
	<polygon style="fill:#FFD3AE;" points="258.155,236 258.155,265.77 214.585,329.333 171.025,265.77 171.025,236 	"/>
	<g>
		<g>
			<circle style="fill:#EFC2A0;" cx="134.016" cy="145.18" r="27.89"/>
			<circle style="fill:#EFC2A0;" cx="295.151" cy="145.18" r="27.89"/>
		</g>
	</g>
	<path style="fill:#E5B591;" d="M258.155,236v24.06c-12.86,7.29-27.73,11.45-43.57,11.45c-15.84,0-30.7-4.16-43.56-11.45V236
		H258.155z"/>
	<path style="fill:#FFD3AE;" d="M263.943,241.15c-14.1,9.49-31.08,15.03-49.36,15.03s-35.26-5.54-49.36-15.03
		c-0.19-0.13-0.39-0.26-0.58-0.4c-23.28-15.94-38.56-42.72-38.56-73.07v-22.5v-51.5c0-48.877,39.623-88.5,88.5-88.5l0,0
		c48.877,0,88.5,39.623,88.5,88.5v51.5v22.5c0,30.35-15.28,57.13-38.56,73.07C264.333,240.89,264.133,241.02,263.943,241.15z"/>
	<g>
		<path style="fill:#E5B591;" d="M164.018,144.513h35.044c6.522,0,11.81,5.287,11.81,11.81v21.123c0,5.092,4.128,9.22,9.22,9.22
			h6.748l-2.943,1.044c-7.666,2.72-16.214,0.773-21.946-4.999L164.018,144.513z"/>
	</g>
	<g>
		<path style="fill:#333333;" d="M180.583,165.616c-1.58,0-3.13-0.64-4.24-1.75c-1.12-1.12-1.76-2.67-1.76-4.25s0.64-3.12,1.76-4.24
			c1.39-1.39,3.46-2.03,5.41-1.64c0.39,0.08,0.76,0.19,1.13,0.34c0.36,0.15,0.71,0.34,1.03,0.55c0.33,0.22,0.64,0.47,0.91,0.75
			c0.28,0.28,0.53,0.58,0.75,0.91s0.4,0.68,0.55,1.04s0.27,0.74,0.34,1.12c0.08,0.39,0.12,0.78,0.12,1.17s-0.04,0.79-0.12,1.18
			c-0.07,0.38-0.19,0.76-0.34,1.12s-0.33,0.71-0.55,1.03c-0.22,0.33-0.47,0.64-0.75,0.92
			C183.713,164.977,182.163,165.616,180.583,165.616z"/>
		<path style="fill:#333333;" d="M248.583,165.616c-0.39,0-0.79-0.04-1.17-0.11c-0.38-0.08-0.76-0.2-1.12-0.35
			c-0.37-0.15-0.71-0.33-1.04-0.55s-0.64-0.47-0.91-0.74c-0.28-0.28-0.53-0.59-0.75-0.92c-0.22-0.32-0.4-0.67-0.55-1.03
			s-0.27-0.74-0.34-1.12c-0.08-0.39-0.12-0.79-0.12-1.18s0.04-0.78,0.12-1.17c0.07-0.38,0.19-0.76,0.34-1.12s0.33-0.71,0.55-1.04
			c0.22-0.33,0.47-0.63,0.75-0.91c0.27-0.28,0.58-0.53,0.91-0.75c0.33-0.21,0.67-0.4,1.04-0.55c0.36-0.15,0.74-0.26,1.12-0.34
			c1.95-0.39,4.02,0.25,5.41,1.64c0.28,0.28,0.53,0.58,0.75,0.91s0.4,0.68,0.55,1.04s0.27,0.74,0.34,1.12
			c0.08,0.39,0.12,0.78,0.12,1.17s-0.04,0.79-0.12,1.18c-0.07,0.38-0.19,0.76-0.34,1.12s-0.33,0.71-0.55,1.03
			c-0.22,0.33-0.47,0.64-0.75,0.92C251.713,164.977,250.163,165.616,248.583,165.616z"/>
		<path style="fill:#AF7245;" d="M191.521,147.513h-21.875c-3.087,0-5.59-2.503-5.59-5.59l0,0c0-3.087,2.503-5.59,5.59-5.59h21.875
			c3.087,0,5.59,2.503,5.59,5.59l0,0C197.111,145.011,194.608,147.513,191.521,147.513z"/>
		<path style="fill:#AF7245;" d="M259.521,147.513h-21.875c-3.087,0-5.59-2.503-5.59-5.59l0,0c0-3.087,2.503-5.59,5.59-5.59h21.875
			c3.087,0,5.59,2.503,5.59,5.59l0,0C265.111,145.011,262.608,147.513,259.521,147.513z"/>
	</g>
	<path style="fill:#FFFFFF;" d="M239.815,199.177c0,2.98-0.52,5.83-1.48,8.49c-0.45,1.28-1.01,2.51-1.65,3.68
		c-4.3,7.78-12.58,13.05-22.1,13.05c-9.53,0-17.81-5.27-22.11-13.05c-0.65-1.17-1.21-2.4-1.66-3.68c-0.96-2.66-1.47-5.51-1.47-8.49
		H239.815z"/>
	<path style="fill:#333333;" d="M238.335,207.667c-0.45,1.28-1.01,2.51-1.65,3.68c-4.3,7.78-12.58,13.05-22.1,13.05
		c-9.53,0-17.81-5.27-22.11-13.05c-0.65-1.17-1.21-2.4-1.66-3.68H238.335z"/>
	<polygon style="fill:#CE925D;" points="141.754,107.317 126.083,152.667 126.083,87.333 	"/>
	<polygon style="fill:#CE925D;" points="287.413,107.317 303.083,152.667 303.083,87.333 	"/>
	<path style="fill:#E8A664;" d="M225.442,131.333c0,0-8-8-6-16c0,0,34.667,14,66,18c0,0-6-8.667-2-14.667
		c0,0,12.667,13.333,27.333,16V93.68c0-51.738-41.942-93.68-93.68-93.68h-3.307c-44.319,0-81.449,30.775-91.187,72.121
		c-0.016,0.069-0.033,0.138-0.049,0.208c-2.928,12.56,2.861,25.543,13.999,32.043C155.625,115.504,189.132,131.333,225.442,131.333z
		"/>
	<rect x="97.075" y="368.667" style="fill:#DD5D3A;" width="40.5" height="9.333"/>
	<rect x="291.605" y="368.667" style="fill:#DD5D3A;" width="40.5" height="9.333"/>
	<path style="fill:#DD5D3A;" d="M283.534,343.014c2.135,0,3.865,1.731,3.865,3.865v8.082c0,7.635-10.143,21.27-15.546,27.99
		c-1.696,2.109-4.899,2.109-6.594,0c-5.402-6.72-15.546-20.354-15.546-27.99v-8.082c0-2.135,1.731-3.865,3.865-3.865H283.534z"/>
	<path style="fill:#FFFFFF;" d="M268.556,377.454c-9.446-12.046-12.843-19.613-12.843-22.494v-5.947h25.686v5.947
		C281.399,357.841,278.003,365.408,268.556,377.454z"/>
</g>
<g>
</g>
<g>
</g>
<g>
</g>
<g>
</g>
<g>
</g>
<g>
</g>
<g>
</g>
<g>
</g>
<g>
</g>
<g>
</g>
<g>
</g>
<g>
</g>
<g>
</g>
<g>
</g>
<g>
</g>
</svg>
