<?xml version="1.0" standalone="no"?>
<!DOCTYPE svg PUBLIC "-//W3C//DTD SVG 20010904//EN"
 "http://www.w3.org/TR/2001/REC-SVG-20010904/DTD/svg10.dtd">
<svg version="1.0" xmlns="http://www.w3.org/2000/svg"
 width="2400.000000pt" height="2400.000000pt" viewBox="0 0 2400.000000 2400.000000"
 preserveAspectRatio="xMidYMid meet">
<metadata>
Created by potrace 1.16, written by Peter Selinger 2001-2019
</metadata>
<g transform="translate(0.000000,2400.000000) scale(0.100000,-0.100000)"
fill="#000000" stroke="none">
<path d="M5413 16833 c3 -5325 0 -4993 53 -5358 65 -454 212 -891 467 -1395
247 -489 748 -1062 1417 -1620 338 -282 844 -637 1234 -865 326 -191 469 -278
1411 -860 506 -312 1132 -698 1390 -858 259 -160 496 -306 527 -324 l57 -35
1328 803 c730 441 1432 865 1558 942 127 76 309 184 405 240 293 168 525 317
805 517 186 134 230 169 230 183 0 7 52 47 115 89 302 202 873 751 1236 1188
226 272 350 453 452 661 243 495 376 903 437 1344 52 370 49 36 52 5348 l3
4917 -6590 0 -6590 0 3 -4917z m3560 2867 l295 -324 -57 -66 c-32 -36 -239
-271 -459 -524 l-402 -458 -403 -342 c-222 -187 -411 -347 -421 -355 -15 -13
-21 -10 -51 19 -35 34 -35 34 -35 127 0 91 1 96 46 184 58 117 177 318 321
542 l115 177 -12 73 c-6 39 -22 95 -35 123 l-25 51 21 78 c11 43 26 93 34 111
11 28 765 918 771 911 2 -1 135 -148 297 -327z m6685 -136 c198 -232 371 -439
385 -461 14 -21 33 -63 43 -91 15 -43 16 -56 6 -72 -8 -13 -12 -62 -12 -140
l0 -120 96 -177 c115 -212 251 -483 289 -573 14 -36 35 -82 46 -102 22 -44 18
-80 -18 -150 l-23 -48 -153 120 c-83 66 -282 222 -442 347 l-290 229 -457 519
c-251 286 -456 525 -455 532 1 6 133 155 292 331 l290 320 21 -21 c12 -12 183
-212 382 -443z m-4228 66 l0 -170 160 0 160 0 0 170 0 170 215 0 215 0 0 -170
0 -170 160 0 160 0 0 170 0 170 220 0 220 0 -2 -422 -3 -423 -959 -3 c-700 -1
-962 1 -972 9 -11 9 -14 89 -14 425 l0 414 220 0 220 0 0 -170z m-1034 -2572
c808 -941 1475 -1719 1482 -1729 10 -15 -4 -36 -115 -168 -71 -82 -131 -149
-134 -148 -11 3 -2964 3449 -2964 3459 0 10 247 297 256 298 3 0 667 -770
1475 -1712z m2339 1690 c12 -57 276 -2101 273 -2118 -3 -20 -994 -1180 -1008
-1180 -7 0 -756 868 -1071 1241 l-56 65 163 1005 c90 552 164 1005 164 1007 0
1 344 2 765 2 l765 0 5 -22z m2565 -343 c-9 -11 -1654 -1912 -3655 -4225
-2001 -2313 -3657 -4226 -3679 -4252 -23 -26 -65 -59 -94 -74 -44 -22 -62 -26
-109 -22 -55 5 -59 7 -110 64 -71 79 -86 114 -81 180 3 38 12 63 34 91 23 30
6652 7693 7266 8400 l159 183 143 -163 c139 -157 143 -163 126 -182z m-7370
-1970 l0 -135 125 0 125 0 0 135 0 135 215 0 215 0 0 -135 0 -135 130 0 130 0
0 135 0 135 180 0 180 0 0 -385 0 -385 -865 0 -865 0 0 385 0 385 215 0 215 0
0 -135z m7130 0 l0 -135 165 0 165 0 0 135 0 135 180 0 180 0 0 -135 0 -135
160 0 160 0 0 135 0 135 185 0 185 0 -2 -382 -3 -383 -867 -3 -868 -2 0 385 0
385 180 0 180 0 0 -135z m-5000 -890 l0 -135 160 0 160 0 0 135 0 135 229 0
230 0 20 -26 c18 -23 21 -41 21 -135 l0 -109 94 0 95 0 223 -261 c123 -143
223 -263 223 -267 0 -15 -1910 -2232 -1912 -2220 -6 29 -323 2643 -323 2658 0
13 31 25 133 52 l132 34 3 137 3 137 254 0 255 0 0 -135z m3500 0 l0 -135 190
0 190 0 0 135 0 135 220 0 220 0 0 -135 0 -134 138 -3 138 -3 -158 -1320 c-86
-726 -158 -1330 -160 -1343 -2 -18 -193 199 -925 1052 -508 591 -924 1079
-925 1085 -2 5 98 127 221 270 l223 261 94 0 94 0 0 109 c0 94 3 112 21 135
l20 26 200 0 199 0 0 -135z m2674 113 c9 -41 406 -2904 406 -2926 l0 -22
-1041 0 -1042 0 5 33 c3 17 81 686 174 1485 l168 1452 663 0 663 0 4 -22z
m-7209 -50 c4 -12 345 -2931 345 -2956 0 -9 -241 -12 -1040 -12 -984 0 -1040
1 -1040 18 0 35 408 2941 415 2952 10 16 1314 14 1320 -2z m5321 -3153 c1081
-1260 1974 -2308 1985 -2330 50 -108 -13 -240 -129 -270 -56 -15 -115 -6 -159
22 -14 9 -894 1029 -1955 2267 -1062 1238 -1942 2263 -1956 2278 l-24 27 128
150 c71 83 132 150 137 148 4 -1 892 -1033 1973 -2292z m-879 160 c802 -936
1464 -1708 1471 -1717 11 -14 6 -20 -45 -47 -202 -109 -458 -342 -686 -627
-60 -73 -237 -318 -256 -352 -6 -11 -45 10 -177 98 -256 170 -587 328 -859
410 l-90 27 -5 994 -5 994 -26 95 c-109 394 -307 627 -604 712 -66 18 -104 22
-215 22 -119 0 -144 -3 -215 -27 -106 -35 -170 -74 -251 -149 -138 -129 -224
-295 -296 -568 -22 -85 -22 -91 -28 -1070 l-5 -984 -35 -10 c-357 -95 -735
-272 -1043 -487 -54 -38 -101 -69 -105 -69 -4 0 -25 28 -47 62 -72 112 -240
330 -353 460 -161 183 -372 366 -514 446 -27 15 -47 30 -45 34 5 15 2963 3457
2969 3455 3 -1 662 -767 1465 -1702z m-1344 400 c100 -26 176 -72 258 -155 63
-63 86 -96 128 -181 28 -57 63 -144 78 -194 l28 -90 3 -969 2 -969 -32 7
c-196 41 -307 50 -618 50 -300 1 -445 -10 -566 -40 l-24 -6 0 935 c0 1016 -2
984 57 1162 79 242 211 395 388 451 56 18 228 17 298 -1z m-2640 -507 c-11
-13 -293 -342 -628 -732 l-608 -708 -41 5 c-320 44 -416 51 -766 51 -369 1
-466 -6 -619 -45 -41 -11 -76 -17 -79 -14 -5 4 335 1441 344 1457 3 4 548 8
1211 8 l1206 0 -20 -22z m7386 -70 c12 -51 90 -381 175 -733 84 -352 151 -642
150 -643 -1 -2 -39 5 -84 17 -165 42 -338 54 -675 48 -172 -4 -368 -13 -440
-21 -71 -9 -157 -18 -191 -22 l-60 -6 -600 698 c-329 384 -610 711 -622 726
l-24 28 1175 0 1175 0 21 -92z m-4534 -2103 c574 -73 1082 -287 1565 -661 135
-104 454 -419 561 -554 90 -112 189 -250 189 -261 0 -8 -163 -109 -176 -109
-5 0 -15 10 -23 23 -81 131 -331 420 -488 563 -558 509 -1196 778 -1903 801
-701 23 -1362 -215 -1945 -698 -143 -119 -343 -323 -464 -474 -57 -72 -105
-131 -106 -133 -5 -5 -175 110 -175 118 0 5 25 41 57 81 209 272 491 544 773
746 454 324 990 525 1530 572 139 13 456 5 605 -14z"/>
<path d="M11870 17985 l0 -155 -125 0 -125 0 0 -100 0 -100 125 0 125 0 0
-395 0 -395 95 0 95 0 0 395 0 395 125 0 125 0 0 100 0 100 -125 0 -125 0 0
155 0 155 -95 0 -95 0 0 -155z"/>
<path d="M15500 14860 l0 -190 -120 0 -120 0 0 -95 0 -95 120 0 120 0 0 -365
0 -365 100 0 100 0 0 365 0 365 120 0 120 0 0 95 0 95 -120 0 -120 0 0 190 0
190 -100 0 -100 0 0 -190z"/>
<path d="M8230 14825 l0 -155 -120 0 -120 0 0 -95 0 -95 120 0 120 0 0 -365 0
-365 100 0 100 0 0 365 0 365 120 0 120 0 0 95 0 95 -120 0 -120 0 0 155 0
155 -100 0 -100 0 0 -155z"/>
<path d="M19151 11353 c-78 -421 -240 -909 -442 -1333 -182 -381 -301 -579
-489 -815 -120 -150 -492 -526 -657 -665 -62 -51 -111 -95 -110 -97 2 -1 412
56 912 127 500 71 911 126 914 122 3 -5 16 -24 28 -43 12 -20 33 -41 47 -47
13 -6 277 -234 587 -508 310 -273 571 -503 581 -511 14 -13 26 0 116 129 283
405 624 1008 782 1383 189 449 308 900 370 1403 7 51 9 96 6 99 -3 3 -384
-191 -848 -431 -754 -392 -843 -436 -854 -421 -7 9 -214 398 -460 863 -246
466 -450 851 -454 855 -4 4 -17 -45 -29 -110z"/>
<path d="M4788 11405 c-3 -6 -200 -379 -438 -830 -238 -451 -438 -826 -445
-833 -9 -10 -185 78 -858 427 l-847 439 0 -34 c0 -18 9 -104 20 -191 104 -811
345 -1490 793 -2238 59 -99 329 -509 365 -553 l18 -23 650 574 c483 426 654
571 665 565 13 -8 1751 -260 1756 -254 2 1 -50 47 -114 102 -263 223 -548 520
-722 754 -123 164 -189 273 -311 515 -250 493 -411 958 -495 1425 -31 172 -30
167 -37 155z"/>
<path d="M5400 8110 c53 -44 529 -399 605 -452 l81 -56 223 173 c122 95 222
177 222 182 0 4 -242 42 -538 85 -296 42 -556 79 -578 82 l-40 6 25 -20z"/>
<path d="M17935 8030 c-291 -43 -532 -78 -534 -79 -2 -1 70 -58 160 -128 90
-69 191 -148 225 -174 l61 -48 208 150 c115 83 269 197 343 255 125 97 132
104 101 103 -19 -1 -272 -36 -564 -79z"/>
<path d="M3694 7200 c-550 -485 -1000 -884 -1002 -888 -9 -28 659 -708 938
-953 1236 -1088 2646 -1907 4190 -2434 2736 -933 5869 -897 8575 100 1479 545
2874 1390 4025 2440 223 203 667 656 788 803 l35 43 -24 23 c-13 13 -464 411
-1001 885 l-977 861 -154 -129 c-1432 -1192 -3141 -2128 -4722 -2587 -1398
-406 -2700 -465 -4061 -184 -1613 333 -3345 1160 -4936 2357 -209 157 -535
419 -654 525 -21 19 -23 18 -1020 -862z m1274 204 c70 -52 128 -99 130 -104 2
-4 -96 -206 -217 -448 l-221 -440 -92 -99 c-89 -93 -138 -153 -138 -168 0 -13
67 41 159 128 51 48 112 100 136 115 24 15 194 163 379 330 184 166 339 302
343 302 5 0 53 -45 108 -100 95 -95 98 -100 87 -125 -13 -28 -449 -853 -510
-965 l-35 -65 51 50 c27 28 76 66 109 85 32 19 210 171 396 338 277 250 342
303 356 296 33 -16 260 -189 258 -196 -1 -5 -339 -284 -752 -622 l-750 -614
-102 101 c-57 56 -103 106 -103 110 0 18 464 873 495 912 17 22 61 84 98 138
49 71 62 95 45 86 -49 -26 -115 -74 -158 -115 -25 -24 -236 -203 -470 -398
l-425 -354 -103 101 c-56 56 -101 107 -100 114 6 25 883 1703 891 1703 4 0 65
-43 135 -96z m14017 -359 c81 -21 214 -86 294 -143 82 -58 235 -204 311 -297
342 -417 368 -847 70 -1155 -57 -59 -84 -77 -209 -139 -79 -40 -147 -69 -151
-64 -4 4 -268 329 -585 722 l-577 713 108 110 c60 60 140 130 178 155 76 51
188 98 268 113 70 12 218 5 293 -15z m-874 -571 c55 -75 97 -140 92 -144 -4
-4 -64 -49 -133 -100 -69 -51 -127 -94 -128 -96 -2 -1 42 -79 98 -173 l102
-170 137 69 138 68 94 -125 c52 -69 98 -132 102 -139 6 -10 -28 -31 -128 -81
l-135 -68 135 -203 c91 -136 140 -200 148 -196 7 4 64 47 127 94 63 47 120 89
126 93 7 4 51 -46 113 -128 55 -74 101 -137 101 -140 0 -2 -118 -93 -262 -201
-145 -108 -268 -201 -274 -206 -17 -12 -1110 1560 -1098 1578 11 16 526 403
537 404 4 0 52 -61 108 -136z m-11392 -339 c165 -110 301 -204 301 -209 0 -5
-45 -69 -100 -143 l-101 -134 -57 44 c-122 93 -210 157 -214 157 -8 0 -272
-400 -267 -404 2 -2 64 -34 137 -70 l132 -66 -70 -140 -70 -140 -138 69 -138
69 -101 -168 -101 -168 21 -20 c12 -10 69 -54 127 -97 58 -43 109 -82 114 -86
13 -12 -192 -351 -207 -343 -66 35 -606 402 -604 410 4 20 1022 1644 1028
1641 4 -1 142 -92 308 -202z m10699 -131 c51 -69 95 -130 98 -137 3 -8 -48
-38 -131 -79 l-135 -68 19 -32 c110 -191 731 -1333 729 -1339 -5 -15 -332
-208 -339 -201 -4 4 -159 327 -344 717 -186 391 -339 711 -340 713 -2 2 -62
-26 -134 -62 -72 -36 -134 -66 -139 -66 -4 0 -38 61 -74 135 -61 121 -66 135
-50 144 196 111 730 400 737 400 6 0 52 -56 103 -125z m-9983 -254 c54 -18 73
-33 169 -129 l109 -109 -68 -171 c-38 -93 -72 -168 -77 -165 -4 3 -27 39 -49
80 -43 78 -78 114 -113 114 -11 1 -32 7 -46 15 -46 26 -85 19 -142 -28 -94
-76 -101 -169 -28 -344 117 -278 137 -354 127 -472 -13 -149 -96 -319 -212
-436 -152 -154 -328 -191 -535 -115 -94 35 -125 55 -229 152 l-72 67 102 172
103 171 11 -56 c17 -86 88 -146 173 -146 12 0 36 -9 54 -20 39 -24 116 -27
156 -6 63 33 111 120 112 201 0 57 -22 109 -106 253 -76 128 -100 185 -120
282 -50 249 107 557 341 670 111 53 218 59 340 20z m9406 -959 c225 -469 408
-855 407 -856 -8 -8 -339 -137 -343 -134 -6 7 -755 1712 -753 1714 12 11 265
133 271 132 5 -2 193 -387 418 -856z m-8508 518 c221 -111 403 -202 405 -204
3 -3 -125 -264 -134 -274 -2 -2 -62 11 -133 29 -71 17 -133 30 -138 27 -4 -3
-129 -325 -278 -716 -148 -391 -274 -711 -280 -711 -13 0 -318 121 -329 131
-5 4 128 326 298 724 169 394 306 718 304 720 -2 1 -63 33 -136 69 -82 41
-132 72 -129 79 3 7 33 83 68 170 34 86 66 157 71 157 4 0 189 -90 411 -201z
m8225 -1715 c-3 -2 -80 -19 -172 -38 l-167 -33 -372 474 c-335 427 -372 472
-375 445 -4 -39 48 -145 98 -197 35 -37 49 -73 173 -448 122 -365 134 -408
118 -416 -36 -19 -324 -132 -327 -128 -7 7 -614 1764 -614 1776 0 17 262 145
276 135 7 -5 180 -205 384 -444 205 -239 378 -441 385 -449 17 -17 -24 92 -65
174 -35 69 -302 856 -294 864 3 3 80 36 172 72 l167 67 309 -925 c169 -508
306 -926 304 -929z m-1633 731 c74 -374 144 -714 156 -755 29 -109 24 -253
-13 -332 -50 -107 -141 -184 -286 -240 -64 -25 -96 -31 -188 -36 -129 -5 -191
6 -279 52 -107 56 -216 187 -274 331 -21 52 -296 1473 -287 1482 10 10 331 71
338 65 9 -10 275 -1217 282 -1284 17 -156 109 -268 235 -285 32 -4 43 -1 76
28 71 62 83 145 40 271 -22 66 -285 1293 -285 1331 0 11 16 19 53 26 286 59
282 58 289 42 4 -9 69 -322 143 -696z m-5347 586 c24 -5 46 -11 49 -15 3 -3
-24 -157 -61 -342 -37 -185 -66 -337 -64 -339 7 -7 329 -68 333 -63 3 3 35
155 72 339 36 184 67 335 68 336 3 5 330 -60 337 -66 7 -6 -327 -1839 -337
-1849 -4 -4 -334 57 -342 62 -1 1 29 170 66 376 38 206 68 376 67 378 -2 1
-78 17 -170 36 l-166 33 -5 -21 c-3 -11 -32 -172 -65 -356 -33 -184 -62 -345
-65 -356 l-5 -21 -166 33 c-92 19 -170 36 -173 39 -4 5 321 1787 335 1836 5
17 2 17 292 -40z m1636 -243 c7 -33 205 -1962 202 -1965 -4 -4 -336 63 -341
69 -3 3 -20 79 -38 169 l-33 164 -171 3 -171 2 -33 -135 -33 -135 -174 0
c-160 0 -173 1 -168 18 3 9 125 422 272 917 146 495 268 903 271 908 2 4 96 7
208 7 204 0 205 0 209 -22z m1716 14 c0 -4 61 -433 135 -952 74 -519 135 -948
135 -952 0 -5 -78 -7 -172 -6 l-173 3 -65 652 c-36 358 -67 654 -70 657 -4 3
-16 -70 -29 -162 -13 -92 -56 -384 -97 -650 -41 -265 -74 -487 -74 -493 0 -6
-52 -9 -142 -7 l-141 3 -99 425 c-54 234 -113 513 -132 620 l-34 195 -1 -657
-1 -658 -176 0 -176 0 6 123 c4 67 18 444 31 837 13 393 27 770 31 838 l6 122
242 -2 241 -3 100 -534 c55 -294 101 -524 102 -510 5 46 63 1048 63 1083 l0
36 245 0 c135 0 245 -4 245 -8z"/>
<path d="M18667 6704 c-22 -10 -36 -22 -33 -29 7 -20 737 -945 745 -945 12 0
58 53 75 88 54 106 9 323 -107 520 -67 115 -278 289 -427 352 -72 31 -198 37
-253 14z"/>
<path d="M10829 3776 l-96 -386 133 0 c101 0 134 3 134 13 0 6 -14 118 -31
247 -17 129 -34 297 -37 373 l-7 139 -96 -386z"/>
</g>
</svg>
